<mxfile host="app.diagrams.net" modified="2024-01-21T22:35:28.696Z" agent="Mozilla/5.0 (X11; Linux x86_64) AppleWebKit/537.36 (KHTML, like Gecko) Chrome/120.0.0.0 Safari/537.36" etag="x0CiYvYLM13y4M1865wE" version="22.1.21" type="device">
  <diagram name="Page-1" id="YA6ztxZEW0bZfLjEBgkX">
    <mxGraphModel dx="1077" dy="595" grid="1" gridSize="10" guides="1" tooltips="1" connect="1" arrows="1" fold="1" page="1" pageScale="1" pageWidth="1200" pageHeight="1600" math="0" shadow="0">
      <root>
        <mxCell id="0" />
        <mxCell id="1" parent="0" />
        <mxCell id="C9eyyymHcLxBEWaXL-E8-1" value="" style="rounded=0;whiteSpace=wrap;html=1;movable=0;resizable=0;rotatable=0;deletable=0;editable=0;locked=1;connectable=0;" vertex="1" parent="1">
          <mxGeometry x="190" y="290" width="830" height="50" as="geometry" />
        </mxCell>
        <mxCell id="C9eyyymHcLxBEWaXL-E8-2" value="drop first messages" style="rounded=0;whiteSpace=wrap;html=1;" vertex="1" parent="1">
          <mxGeometry x="190" y="340" width="130" height="20" as="geometry" />
        </mxCell>
        <mxCell id="C9eyyymHcLxBEWaXL-E8-3" value="drop last messages" style="rounded=0;whiteSpace=wrap;html=1;" vertex="1" parent="1">
          <mxGeometry x="890" y="340" width="130" height="20" as="geometry" />
        </mxCell>
        <mxCell id="C9eyyymHcLxBEWaXL-E8-4" value="" style="endArrow=none;html=1;rounded=0;exitX=1;exitY=0;exitDx=0;exitDy=0;" edge="1" parent="1" source="C9eyyymHcLxBEWaXL-E8-2">
          <mxGeometry width="50" height="50" relative="1" as="geometry">
            <mxPoint x="560" y="410" as="sourcePoint" />
            <mxPoint x="320" y="290" as="targetPoint" />
          </mxGeometry>
        </mxCell>
        <mxCell id="C9eyyymHcLxBEWaXL-E8-5" value="" style="endArrow=none;html=1;rounded=0;exitX=0;exitY=0;exitDx=0;exitDy=0;" edge="1" parent="1" source="C9eyyymHcLxBEWaXL-E8-3">
          <mxGeometry width="50" height="50" relative="1" as="geometry">
            <mxPoint x="670" y="360" as="sourcePoint" />
            <mxPoint x="890" y="290" as="targetPoint" />
          </mxGeometry>
        </mxCell>
        <mxCell id="C9eyyymHcLxBEWaXL-E8-6" value="" style="rounded=1;whiteSpace=wrap;html=1;fillColor=#f8cecc;strokeColor=#b85450;" vertex="1" parent="1">
          <mxGeometry x="200" y="300" width="30" height="30" as="geometry" />
        </mxCell>
        <mxCell id="C9eyyymHcLxBEWaXL-E8-7" value="" style="rounded=1;whiteSpace=wrap;html=1;fillColor=#f8cecc;strokeColor=#b85450;" vertex="1" parent="1">
          <mxGeometry x="240" y="300" width="30" height="30" as="geometry" />
        </mxCell>
        <mxCell id="C9eyyymHcLxBEWaXL-E8-8" value="" style="rounded=1;whiteSpace=wrap;html=1;fillColor=#f8cecc;strokeColor=#b85450;" vertex="1" parent="1">
          <mxGeometry x="280" y="300" width="30" height="30" as="geometry" />
        </mxCell>
        <mxCell id="C9eyyymHcLxBEWaXL-E8-9" value="" style="rounded=1;whiteSpace=wrap;html=1;fillColor=#dae8fc;strokeColor=#6c8ebf;" vertex="1" parent="1">
          <mxGeometry x="330" y="300" width="30" height="30" as="geometry" />
        </mxCell>
        <mxCell id="C9eyyymHcLxBEWaXL-E8-10" value="" style="rounded=1;whiteSpace=wrap;html=1;fillColor=#dae8fc;strokeColor=#6c8ebf;" vertex="1" parent="1">
          <mxGeometry x="370" y="300" width="30" height="30" as="geometry" />
        </mxCell>
        <mxCell id="C9eyyymHcLxBEWaXL-E8-11" value="" style="rounded=1;whiteSpace=wrap;html=1;fillColor=#dae8fc;strokeColor=#6c8ebf;" vertex="1" parent="1">
          <mxGeometry x="410" y="300" width="30" height="30" as="geometry" />
        </mxCell>
        <mxCell id="C9eyyymHcLxBEWaXL-E8-12" value="" style="rounded=1;whiteSpace=wrap;html=1;fillColor=#dae8fc;strokeColor=#6c8ebf;" vertex="1" parent="1">
          <mxGeometry x="450" y="300" width="30" height="30" as="geometry" />
        </mxCell>
        <mxCell id="C9eyyymHcLxBEWaXL-E8-13" value="" style="rounded=1;whiteSpace=wrap;html=1;fillColor=#dae8fc;strokeColor=#6c8ebf;" vertex="1" parent="1">
          <mxGeometry x="490" y="300" width="30" height="30" as="geometry" />
        </mxCell>
        <mxCell id="C9eyyymHcLxBEWaXL-E8-14" value="" style="rounded=1;whiteSpace=wrap;html=1;fillColor=#dae8fc;strokeColor=#6c8ebf;" vertex="1" parent="1">
          <mxGeometry x="530" y="300" width="30" height="30" as="geometry" />
        </mxCell>
        <mxCell id="C9eyyymHcLxBEWaXL-E8-15" value="" style="rounded=1;whiteSpace=wrap;html=1;fillColor=#dae8fc;strokeColor=#6c8ebf;" vertex="1" parent="1">
          <mxGeometry x="570" y="300" width="30" height="30" as="geometry" />
        </mxCell>
        <mxCell id="C9eyyymHcLxBEWaXL-E8-16" value="" style="rounded=1;whiteSpace=wrap;html=1;fillColor=#dae8fc;strokeColor=#6c8ebf;" vertex="1" parent="1">
          <mxGeometry x="610" y="300" width="30" height="30" as="geometry" />
        </mxCell>
        <mxCell id="C9eyyymHcLxBEWaXL-E8-17" value="" style="rounded=1;whiteSpace=wrap;html=1;fillColor=#dae8fc;strokeColor=#6c8ebf;" vertex="1" parent="1">
          <mxGeometry x="650" y="300" width="30" height="30" as="geometry" />
        </mxCell>
        <mxCell id="C9eyyymHcLxBEWaXL-E8-18" value="" style="rounded=1;whiteSpace=wrap;html=1;fillColor=#dae8fc;strokeColor=#6c8ebf;" vertex="1" parent="1">
          <mxGeometry x="690" y="300" width="30" height="30" as="geometry" />
        </mxCell>
        <mxCell id="C9eyyymHcLxBEWaXL-E8-19" value="" style="rounded=1;whiteSpace=wrap;html=1;fillColor=#dae8fc;strokeColor=#6c8ebf;" vertex="1" parent="1">
          <mxGeometry x="730" y="300" width="30" height="30" as="geometry" />
        </mxCell>
        <mxCell id="C9eyyymHcLxBEWaXL-E8-20" value="" style="rounded=1;whiteSpace=wrap;html=1;fillColor=#dae8fc;strokeColor=#6c8ebf;" vertex="1" parent="1">
          <mxGeometry x="770" y="300" width="30" height="30" as="geometry" />
        </mxCell>
        <mxCell id="C9eyyymHcLxBEWaXL-E8-21" value="" style="rounded=1;whiteSpace=wrap;html=1;fillColor=#fff2cc;strokeColor=#d6b656;" vertex="1" parent="1">
          <mxGeometry x="810" y="300" width="30" height="30" as="geometry" />
        </mxCell>
        <mxCell id="C9eyyymHcLxBEWaXL-E8-22" value="" style="rounded=1;whiteSpace=wrap;html=1;fillColor=#fff2cc;strokeColor=#d6b656;" vertex="1" parent="1">
          <mxGeometry x="850" y="300" width="30" height="30" as="geometry" />
        </mxCell>
        <mxCell id="C9eyyymHcLxBEWaXL-E8-23" value="" style="rounded=1;whiteSpace=wrap;html=1;fillColor=#f8cecc;strokeColor=#b85450;" vertex="1" parent="1">
          <mxGeometry x="900" y="300" width="30" height="30" as="geometry" />
        </mxCell>
        <mxCell id="C9eyyymHcLxBEWaXL-E8-24" value="" style="rounded=1;whiteSpace=wrap;html=1;fillColor=#f8cecc;strokeColor=#b85450;" vertex="1" parent="1">
          <mxGeometry x="940" y="300" width="30" height="30" as="geometry" />
        </mxCell>
        <mxCell id="C9eyyymHcLxBEWaXL-E8-25" value="" style="rounded=1;whiteSpace=wrap;html=1;fillColor=#f8cecc;strokeColor=#b85450;" vertex="1" parent="1">
          <mxGeometry x="980" y="300" width="30" height="30" as="geometry" />
        </mxCell>
        <mxCell id="C9eyyymHcLxBEWaXL-E8-26" value="" style="shape=curlyBracket;whiteSpace=wrap;html=1;rounded=1;flipH=1;labelPosition=right;verticalLabelPosition=middle;align=left;verticalAlign=middle;rotation=90;" vertex="1" parent="1">
          <mxGeometry x="396.25" y="286.25" width="20" height="147.5" as="geometry" />
        </mxCell>
        <mxCell id="C9eyyymHcLxBEWaXL-E8-27" value="" style="shape=curlyBracket;whiteSpace=wrap;html=1;rounded=1;flipH=1;labelPosition=right;verticalLabelPosition=middle;align=left;verticalAlign=middle;rotation=90;" vertex="1" parent="1">
          <mxGeometry x="556" y="286.25" width="20" height="147.5" as="geometry" />
        </mxCell>
        <mxCell id="C9eyyymHcLxBEWaXL-E8-28" value="" style="shape=curlyBracket;whiteSpace=wrap;html=1;rounded=1;flipH=1;labelPosition=right;verticalLabelPosition=middle;align=left;verticalAlign=middle;rotation=90;" vertex="1" parent="1">
          <mxGeometry x="716" y="290" width="20" height="147.5" as="geometry" />
        </mxCell>
        <mxCell id="C9eyyymHcLxBEWaXL-E8-29" value="" style="shape=curlyBracket;whiteSpace=wrap;html=1;rounded=1;flipH=1;labelPosition=right;verticalLabelPosition=middle;align=left;verticalAlign=middle;rotation=90;" vertex="1" parent="1">
          <mxGeometry x="835" y="328.35" width="20" height="70.79" as="geometry" />
        </mxCell>
        <mxCell id="C9eyyymHcLxBEWaXL-E8-31" value="Batch 1" style="text;html=1;strokeColor=none;fillColor=none;align=center;verticalAlign=middle;whiteSpace=wrap;rounded=0;" vertex="1" parent="1">
          <mxGeometry x="376.25" y="360" width="60" height="30" as="geometry" />
        </mxCell>
        <mxCell id="C9eyyymHcLxBEWaXL-E8-32" value="Batch 2" style="text;html=1;strokeColor=none;fillColor=none;align=center;verticalAlign=middle;whiteSpace=wrap;rounded=0;" vertex="1" parent="1">
          <mxGeometry x="536" y="360" width="60" height="30" as="geometry" />
        </mxCell>
        <mxCell id="C9eyyymHcLxBEWaXL-E8-33" value="Batch 3" style="text;html=1;strokeColor=none;fillColor=none;align=center;verticalAlign=middle;whiteSpace=wrap;rounded=0;" vertex="1" parent="1">
          <mxGeometry x="696" y="360" width="60" height="30" as="geometry" />
        </mxCell>
        <mxCell id="C9eyyymHcLxBEWaXL-E8-34" value="Incomplete Batch" style="text;html=1;strokeColor=none;fillColor=none;align=center;verticalAlign=middle;whiteSpace=wrap;rounded=0;" vertex="1" parent="1">
          <mxGeometry x="815" y="369.14" width="60" height="30" as="geometry" />
        </mxCell>
        <mxCell id="C9eyyymHcLxBEWaXL-E8-36" value="" style="endArrow=classic;html=1;rounded=0;exitX=0;exitY=1;exitDx=0;exitDy=0;" edge="1" parent="1" source="C9eyyymHcLxBEWaXL-E8-2">
          <mxGeometry width="50" height="50" relative="1" as="geometry">
            <mxPoint x="590" y="360" as="sourcePoint" />
            <mxPoint x="190" y="390" as="targetPoint" />
          </mxGeometry>
        </mxCell>
        <mxCell id="C9eyyymHcLxBEWaXL-E8-37" value="Sensor stops moving" style="text;html=1;strokeColor=none;fillColor=none;align=center;verticalAlign=middle;whiteSpace=wrap;rounded=0;" vertex="1" parent="1">
          <mxGeometry x="150" y="390" width="90" height="30" as="geometry" />
        </mxCell>
        <mxCell id="C9eyyymHcLxBEWaXL-E8-38" value="Sensor starts moving" style="text;html=1;strokeColor=none;fillColor=none;align=center;verticalAlign=middle;whiteSpace=wrap;rounded=0;" vertex="1" parent="1">
          <mxGeometry x="975" y="390" width="90" height="30" as="geometry" />
        </mxCell>
        <mxCell id="C9eyyymHcLxBEWaXL-E8-39" value="" style="endArrow=classic;html=1;rounded=0;exitX=1;exitY=1;exitDx=0;exitDy=0;" edge="1" parent="1" source="C9eyyymHcLxBEWaXL-E8-3" target="C9eyyymHcLxBEWaXL-E8-38">
          <mxGeometry width="50" height="50" relative="1" as="geometry">
            <mxPoint x="640" y="330" as="sourcePoint" />
            <mxPoint x="690" y="280" as="targetPoint" />
          </mxGeometry>
        </mxCell>
      </root>
    </mxGraphModel>
  </diagram>
</mxfile>
